# xmcd
#
# Track frame offsets:
#	150
#	17781
#	37788
#	53953
#	70338
#	86397
#	101670
#	117467
#	132073
#	145329
#	163361
#
# Disc length: 2407 seconds
#
# Revision: 0
# Processed by: cddbd v1.5.2PL0 Copyright (c) Steve Scherf et al.
# Submitted via: EasyCDDAExtractor 16.0.6.1
#
DISCID=9609650b
DTITLE=Σταμάτης Γονίδης - Σημεία των καιρών
DYEAR=2012
DGENRE=Λαϊκά
TTITLE0=Βάλε τα παιδιά για ύπνο (Σταμάτης Γονίδης)
TTITLE1=Σημεία των καιρών (Σταμάτης Γονίδης)
TTITLE2=Έτσι μεγάλωσα (Σταμάτης Γονίδης)
TTITLE3=Γιορτάζω (Σταμάτης Γονίδης)
TTITLE4=Όλα τα΄δωσα για σένα (Σταμάτης Γονίδης)
TTITLE5=Δε μπορεί να μη σου λείπω (Σταμάτης Γονίδης)
TTITLE6=Αγάπη μου τρελή (Σταμάτης Γονίδης)
TTITLE7=Απογοητεύτηκα (Σταμάτης Γονίδης)
TTITLE8=Όλα τα ξέρω για σένα (Σταμάτης Γονίδης)
TTITLE9=Τραυματίας στην αγάπη (Σταμάτης Γονίδης)
TTITLE10=Άδεια η ζωή μου (Σταμάτης Γονίδης)
EXTD=
EXTT0=
EXTT1=
EXTT2=
EXTT3=
EXTT4=
EXTT5=
EXTT6=
EXTT7=
EXTT8=
EXTT9=
EXTT10=
PLAYORDER=
